<mxfile host="65bd71144e">
    <diagram id="uqiWrU2ZrQyCSHU_PJ3j" name="Page-1">
        <mxGraphModel dx="1233" dy="594" grid="1" gridSize="10" guides="1" tooltips="1" connect="1" arrows="1" fold="1" page="0" pageScale="1" pageWidth="550" pageHeight="350" background="none" math="0" shadow="0">
            <root>
                <mxCell id="0"/>
                <mxCell id="1" parent="0"/>
                <mxCell id="Qk7UV_haPpH89cDCGEN_-1" value="" style="rounded=0;whiteSpace=wrap;html=1;fillColor=#f5f5f5;fontColor=#333333;strokeColor=#666666;" parent="1" vertex="1">
                    <mxGeometry x="5" y="15" width="547.68" height="325" as="geometry"/>
                </mxCell>
                <mxCell id="Qk7UV_haPpH89cDCGEN_-152" value="" style="rounded=0;whiteSpace=wrap;html=1;fillColor=#fff2cc;strokeColor=#d6b656;" parent="1" vertex="1">
                    <mxGeometry x="25" y="71" width="480" height="230" as="geometry"/>
                </mxCell>
                <mxCell id="Qk7UV_haPpH89cDCGEN_-151" value="" style="rounded=0;whiteSpace=wrap;html=1;fillColor=#fff2cc;strokeColor=#d6b656;" parent="1" vertex="1">
                    <mxGeometry x="35" y="81" width="480" height="230" as="geometry"/>
                </mxCell>
                <mxCell id="Qk7UV_haPpH89cDCGEN_-2" value="" style="rounded=0;whiteSpace=wrap;html=1;fillColor=#fff2cc;strokeColor=#d6b656;" parent="1" vertex="1">
                    <mxGeometry x="45" y="91" width="480" height="230" as="geometry"/>
                </mxCell>
                <mxCell id="Qk7UV_haPpH89cDCGEN_-10" value="&lt;div&gt;&lt;br&gt;&lt;/div&gt;" style="rounded=0;whiteSpace=wrap;html=1;fillColor=#e1d5e7;strokeColor=#9673a6;align=center;" parent="1" vertex="1">
                    <mxGeometry x="65" y="141" width="250" height="140" as="geometry"/>
                </mxCell>
                <mxCell id="Qk7UV_haPpH89cDCGEN_-12" value="flag / experiment" style="text;html=1;strokeColor=none;fillColor=none;align=center;verticalAlign=middle;whiteSpace=wrap;rounded=0;fontFamily=Courier New;" parent="1" vertex="1">
                    <mxGeometry x="65" y="141" width="150" height="40" as="geometry"/>
                </mxCell>
                <mxCell id="Qk7UV_haPpH89cDCGEN_-18" value="variant 0" style="rounded=0;whiteSpace=wrap;html=1;fontFamily=Courier New;fillColor=#d5e8d4;strokeColor=#82b366;" parent="1" vertex="1">
                    <mxGeometry x="75" y="181" width="110" height="30" as="geometry"/>
                </mxCell>
                <mxCell id="Qk7UV_haPpH89cDCGEN_-23" value="variant n" style="rounded=0;whiteSpace=wrap;html=1;fontFamily=Courier New;fillColor=#d5e8d4;strokeColor=#82b366;" parent="1" vertex="1">
                    <mxGeometry x="75" y="241" width="110" height="30" as="geometry"/>
                </mxCell>
                <mxCell id="Qk7UV_haPpH89cDCGEN_-25" value="&lt;font face=&quot;Courier New&quot;&gt;deployment 0&lt;/font&gt;" style="rounded=0;whiteSpace=wrap;html=1;fillColor=#dae8fc;strokeColor=#6c8ebf;align=center;dashed=1;" parent="1" vertex="1">
                    <mxGeometry x="195" y="181" width="110" height="30" as="geometry"/>
                </mxCell>
                <mxCell id="Qk7UV_haPpH89cDCGEN_-27" value="&lt;font face=&quot;Courier New&quot;&gt;deployment n&lt;/font&gt;" style="rounded=0;whiteSpace=wrap;html=1;fillColor=#dae8fc;strokeColor=#6c8ebf;align=center;dashed=1;" parent="1" vertex="1">
                    <mxGeometry x="195" y="241" width="110" height="30" as="geometry"/>
                </mxCell>
                <mxCell id="Qk7UV_haPpH89cDCGEN_-28" value="&lt;font size=&quot;1&quot;&gt;&lt;span style=&quot;font-size: 12px&quot;&gt;...&lt;/span&gt;&lt;/font&gt;" style="text;html=1;strokeColor=none;fillColor=none;align=center;verticalAlign=middle;whiteSpace=wrap;rounded=0;fontFamily=Courier New;rotation=90;" parent="1" vertex="1">
                    <mxGeometry x="100" y="211" width="60" height="30" as="geometry"/>
                </mxCell>
                <mxCell id="Qk7UV_haPpH89cDCGEN_-30" value="&lt;font size=&quot;1&quot;&gt;&lt;span style=&quot;font-size: 12px&quot;&gt;...&lt;/span&gt;&lt;/font&gt;" style="text;html=1;strokeColor=none;fillColor=none;align=center;verticalAlign=middle;whiteSpace=wrap;rounded=0;fontFamily=Courier New;rotation=90;" parent="1" vertex="1">
                    <mxGeometry x="220" y="211" width="60" height="30" as="geometry"/>
                </mxCell>
                <mxCell id="Qk7UV_haPpH89cDCGEN_-31" value="&lt;font face=&quot;Courier New&quot;&gt;deployment&lt;/font&gt;" style="rounded=0;whiteSpace=wrap;html=1;fillColor=#dae8fc;strokeColor=#6c8ebf;align=center;" parent="1" vertex="1">
                    <mxGeometry x="365" y="201" width="110" height="30" as="geometry"/>
                </mxCell>
                <mxCell id="Qk7UV_haPpH89cDCGEN_-32" value="&lt;font face=&quot;Courier New&quot;&gt;deployment&lt;/font&gt;" style="rounded=0;whiteSpace=wrap;html=1;fillColor=#dae8fc;strokeColor=#6c8ebf;align=center;" parent="1" vertex="1">
                    <mxGeometry x="375" y="211" width="110" height="30" as="geometry"/>
                </mxCell>
                <mxCell id="Qk7UV_haPpH89cDCGEN_-33" value="&lt;font face=&quot;Courier New&quot;&gt;deployment&lt;/font&gt;" style="rounded=0;whiteSpace=wrap;html=1;fillColor=#dae8fc;strokeColor=#6c8ebf;align=center;" parent="1" vertex="1">
                    <mxGeometry x="385" y="221" width="110" height="30" as="geometry"/>
                </mxCell>
                <mxCell id="Qk7UV_haPpH89cDCGEN_-34" value="&lt;div&gt;&lt;br&gt;&lt;/div&gt;" style="rounded=0;whiteSpace=wrap;html=1;fillColor=#e1d5e7;strokeColor=#9673a6;align=center;" parent="1" vertex="1">
                    <mxGeometry x="75" y="151" width="250" height="140" as="geometry"/>
                </mxCell>
                <mxCell id="Qk7UV_haPpH89cDCGEN_-35" value="flag / experiment" style="text;html=1;strokeColor=none;fillColor=none;align=center;verticalAlign=middle;whiteSpace=wrap;rounded=0;fontFamily=Courier New;" parent="1" vertex="1">
                    <mxGeometry x="75" y="151" width="150" height="40" as="geometry"/>
                </mxCell>
                <mxCell id="Qk7UV_haPpH89cDCGEN_-36" value="variant 0" style="rounded=0;whiteSpace=wrap;html=1;fontFamily=Courier New;fillColor=#d5e8d4;strokeColor=#82b366;" parent="1" vertex="1">
                    <mxGeometry x="85" y="191" width="110" height="30" as="geometry"/>
                </mxCell>
                <mxCell id="Qk7UV_haPpH89cDCGEN_-37" value="variant n" style="rounded=0;whiteSpace=wrap;html=1;fontFamily=Courier New;fillColor=#d5e8d4;strokeColor=#82b366;" parent="1" vertex="1">
                    <mxGeometry x="85" y="251" width="110" height="30" as="geometry"/>
                </mxCell>
                <mxCell id="Qk7UV_haPpH89cDCGEN_-38" value="&lt;font face=&quot;Courier New&quot;&gt;deployment 0&lt;/font&gt;" style="rounded=0;whiteSpace=wrap;html=1;fillColor=#dae8fc;strokeColor=#6c8ebf;align=center;dashed=1;" parent="1" vertex="1">
                    <mxGeometry x="205" y="191" width="110" height="30" as="geometry"/>
                </mxCell>
                <mxCell id="Qk7UV_haPpH89cDCGEN_-39" value="&lt;font face=&quot;Courier New&quot;&gt;deployment n&lt;/font&gt;" style="rounded=0;whiteSpace=wrap;html=1;fillColor=#dae8fc;strokeColor=#6c8ebf;align=center;dashed=1;" parent="1" vertex="1">
                    <mxGeometry x="205" y="251" width="110" height="30" as="geometry"/>
                </mxCell>
                <mxCell id="Qk7UV_haPpH89cDCGEN_-40" value="&lt;font size=&quot;1&quot;&gt;&lt;span style=&quot;font-size: 12px&quot;&gt;...&lt;/span&gt;&lt;/font&gt;" style="text;html=1;strokeColor=none;fillColor=none;align=center;verticalAlign=middle;whiteSpace=wrap;rounded=0;fontFamily=Courier New;rotation=90;" parent="1" vertex="1">
                    <mxGeometry x="110" y="221" width="60" height="30" as="geometry"/>
                </mxCell>
                <mxCell id="Qk7UV_haPpH89cDCGEN_-41" value="&lt;font size=&quot;1&quot;&gt;&lt;span style=&quot;font-size: 12px&quot;&gt;...&lt;/span&gt;&lt;/font&gt;" style="text;html=1;strokeColor=none;fillColor=none;align=center;verticalAlign=middle;whiteSpace=wrap;rounded=0;fontFamily=Courier New;rotation=90;" parent="1" vertex="1">
                    <mxGeometry x="230" y="221" width="60" height="30" as="geometry"/>
                </mxCell>
                <mxCell id="Qk7UV_haPpH89cDCGEN_-42" value="&lt;div&gt;&lt;br&gt;&lt;/div&gt;" style="rounded=0;whiteSpace=wrap;html=1;fillColor=#e1d5e7;strokeColor=#9673a6;align=center;" parent="1" vertex="1">
                    <mxGeometry x="85" y="161" width="250" height="140" as="geometry"/>
                </mxCell>
                <mxCell id="Qk7UV_haPpH89cDCGEN_-43" value="flag / experiment" style="text;html=1;strokeColor=none;fillColor=none;align=center;verticalAlign=middle;whiteSpace=wrap;rounded=0;fontFamily=Courier New;" parent="1" vertex="1">
                    <mxGeometry x="85" y="161" width="150" height="40" as="geometry"/>
                </mxCell>
                <mxCell id="Qk7UV_haPpH89cDCGEN_-44" value="variant 0" style="rounded=0;whiteSpace=wrap;html=1;fontFamily=Courier New;fillColor=#d5e8d4;strokeColor=#82b366;" parent="1" vertex="1">
                    <mxGeometry x="95" y="201" width="110" height="30" as="geometry"/>
                </mxCell>
                <mxCell id="Qk7UV_haPpH89cDCGEN_-45" value="variant n" style="rounded=0;whiteSpace=wrap;html=1;fontFamily=Courier New;fillColor=#d5e8d4;strokeColor=#82b366;" parent="1" vertex="1">
                    <mxGeometry x="95" y="261" width="110" height="30" as="geometry"/>
                </mxCell>
                <mxCell id="Qk7UV_haPpH89cDCGEN_-56" style="edgeStyle=orthogonalEdgeStyle;rounded=0;orthogonalLoop=1;jettySize=auto;html=1;exitX=1;exitY=0.5;exitDx=0;exitDy=0;entryX=0;entryY=0.5;entryDx=0;entryDy=0;fontFamily=Courier New;fontSize=12;" parent="1" source="Qk7UV_haPpH89cDCGEN_-46" target="Qk7UV_haPpH89cDCGEN_-31" edge="1">
                    <mxGeometry relative="1" as="geometry"/>
                </mxCell>
                <mxCell id="Qk7UV_haPpH89cDCGEN_-46" value="&lt;font face=&quot;Courier New&quot;&gt;deployment 0&lt;/font&gt;" style="rounded=0;whiteSpace=wrap;html=1;fillColor=#dae8fc;strokeColor=#6c8ebf;align=center;dashed=1;" parent="1" vertex="1">
                    <mxGeometry x="215" y="201" width="110" height="30" as="geometry"/>
                </mxCell>
                <mxCell id="Qk7UV_haPpH89cDCGEN_-57" style="edgeStyle=orthogonalEdgeStyle;rounded=0;orthogonalLoop=1;jettySize=auto;html=1;exitX=1;exitY=0.5;exitDx=0;exitDy=0;entryX=0.5;entryY=1;entryDx=0;entryDy=0;fontFamily=Courier New;fontSize=12;" parent="1" source="Qk7UV_haPpH89cDCGEN_-47" target="Qk7UV_haPpH89cDCGEN_-33" edge="1">
                    <mxGeometry relative="1" as="geometry"/>
                </mxCell>
                <mxCell id="Qk7UV_haPpH89cDCGEN_-47" value="&lt;font face=&quot;Courier New&quot;&gt;deployment n&lt;/font&gt;" style="rounded=0;whiteSpace=wrap;html=1;fillColor=#dae8fc;strokeColor=#6c8ebf;align=center;dashed=1;" parent="1" vertex="1">
                    <mxGeometry x="215" y="261" width="110" height="30" as="geometry"/>
                </mxCell>
                <mxCell id="Qk7UV_haPpH89cDCGEN_-48" value="&lt;font size=&quot;1&quot;&gt;&lt;span style=&quot;font-size: 12px&quot;&gt;...&lt;/span&gt;&lt;/font&gt;" style="text;html=1;strokeColor=none;fillColor=none;align=center;verticalAlign=middle;whiteSpace=wrap;rounded=0;fontFamily=Courier New;rotation=90;" parent="1" vertex="1">
                    <mxGeometry x="120" y="231" width="60" height="30" as="geometry"/>
                </mxCell>
                <mxCell id="Qk7UV_haPpH89cDCGEN_-49" value="&lt;font size=&quot;1&quot;&gt;&lt;span style=&quot;font-size: 12px&quot;&gt;...&lt;/span&gt;&lt;/font&gt;" style="text;html=1;strokeColor=none;fillColor=none;align=center;verticalAlign=middle;whiteSpace=wrap;rounded=0;fontFamily=Courier New;rotation=90;" parent="1" vertex="1">
                    <mxGeometry x="240" y="231" width="60" height="30" as="geometry"/>
                </mxCell>
                <mxCell id="Qk7UV_haPpH89cDCGEN_-51" value="Project" style="text;html=1;strokeColor=none;fillColor=none;align=left;verticalAlign=middle;whiteSpace=wrap;rounded=0;fontFamily=Courier New;fontSize=12;fontStyle=1" parent="1" vertex="1">
                    <mxGeometry x="55" y="101" width="100" height="20" as="geometry"/>
                </mxCell>
                <mxCell id="Qk7UV_haPpH89cDCGEN_-153" value="Organization" style="text;html=1;strokeColor=none;fillColor=none;align=left;verticalAlign=middle;whiteSpace=wrap;rounded=0;fontFamily=Courier New;fontSize=12;fontStyle=1" parent="1" vertex="1">
                    <mxGeometry x="15" y="25" width="100" height="20" as="geometry"/>
                </mxCell>
            </root>
        </mxGraphModel>
    </diagram>
</mxfile>